<svg xmlns="http://www.w3.org/2000/svg" xmlns:xlink="http://www.w3.org/1999/xlink" width="370" zoomAndPan="magnify" viewBox="0 0 277.91998 143.04" height="180" preserveAspectRatio="xMidYMid meet" version="1.0"><defs><clipPath id="d076743bc9"><path d="M 0.886719 0 L 276.535156 0 L 276.535156 134.101562 L 0.886719 134.101562 Z M 0.886719 0 " clip-rule="nonzero"/></clipPath><clipPath id="22a6b8a74f"><path d="M 87.605469 65 L 189.671875 65 L 189.671875 120.691406 L 87.605469 120.691406 Z M 87.605469 65 " clip-rule="nonzero"/></clipPath><clipPath id="f4f919842e"><path d="M 110 13.410156 L 167 13.410156 L 167 70 L 110 70 Z M 110 13.410156 " clip-rule="nonzero"/></clipPath></defs><g clip-path="url(#d076743bc9)"><path fill="#ffffff" d="M 0.886719 0 L 276.535156 0 L 276.535156 134.101562 L 0.886719 134.101562 Z M 0.886719 0 " fill-opacity="1" fill-rule="nonzero"/><path fill="#ffffff" d="M 0.886719 0 L 276.535156 0 L 276.535156 134.101562 L 0.886719 134.101562 Z M 0.886719 0 " fill-opacity="1" fill-rule="nonzero"/></g><g clip-path="url(#22a6b8a74f)"><path fill="#231f20" d="M 173.152344 71.796875 L 164.480469 65.578125 L 161.515625 69.730469 L 170.1875 75.976562 C 179.1875 82.417969 184.542969 92.878906 184.542969 103.960938 L 184.542969 113.0625 C 184.542969 114.46875 183.402344 115.613281 182 115.613281 L 95.28125 115.613281 C 93.875 115.613281 92.734375 114.46875 92.734375 113.0625 L 92.734375 103.453125 C 92.734375 92.683594 97.871094 82.394531 106.476562 75.910156 L 115.324219 69.25 L 112.25 65.160156 L 103.40625 71.820312 C 93.523438 79.230469 87.621094 91.054688 87.621094 103.433594 L 87.621094 113.039062 C 87.621094 117.261719 91.042969 120.691406 95.28125 120.691406 L 182 120.691406 C 186.214844 120.691406 189.660156 117.261719 189.660156 113.019531 L 189.660156 103.917969 C 189.660156 91.210938 183.492188 79.207031 173.152344 71.796875 Z M 173.152344 71.796875 " fill-opacity="1" fill-rule="nonzero"/></g><g clip-path="url(#f4f919842e)"><path fill="#231f20" d="M 138.640625 69.601562 C 154.117188 69.601562 166.695312 57.003906 166.695312 41.503906 C 166.695312 26.007812 154.117188 13.410156 138.640625 13.410156 C 123.164062 13.410156 110.582031 26.007812 110.582031 41.503906 C 110.582031 57.003906 123.164062 69.601562 138.640625 69.601562 Z M 138.640625 18.511719 C 151.285156 18.511719 161.601562 28.84375 161.601562 41.503906 C 161.601562 54.167969 151.285156 64.5 138.640625 64.5 C 125.996094 64.5 115.675781 54.191406 115.675781 41.503906 C 115.675781 28.820312 125.972656 18.511719 138.640625 18.511719 Z M 138.640625 18.511719 " fill-opacity="1" fill-rule="nonzero"/></g></svg>